<?xml version="1.0" encoding="UTF-8"?>
<svg width="143px" height="33px" viewBox="0 0 143 33" version="1.1" xmlns="http://www.w3.org/2000/svg" xmlns:xlink="http://www.w3.org/1999/xlink">
    <!-- Generator: Sketch 51.3 (57544) - http://www.bohemiancoding.com/sketch -->
    <title>Artboard</title>
    <desc>Created with Sketch.</desc>
    <defs></defs>
    <g id="Artboard" stroke="none" stroke-width="1" fill="none" fill-rule="evenodd">
        <path d="M30.6410012,19.8705962 C28.5634461,28.4420092 20.1234396,33.6584563 11.7894009,31.5209779 C3.45876483,29.3839997 -1.6126277,20.7020878 0.465899527,12.1311747 C2.54248235,3.55876175 10.982489,-1.65818535 19.3140972,0.478792986 C27.6476498,2.61577123 32.7185563,11.2986831 30.6410012,19.8705962 C30.6410012,19.8705962 32.7185563,11.2986831 30.6410012,19.8705962 Z M22.4090417,13.7206586 C22.718682,11.5916802 21.1427734,10.4471918 18.9879298,9.68369957 L19.6869294,6.7997288 L17.9802622,6.36223327 L17.299734,9.17020478 C16.8510716,9.05520592 16.3902569,8.94670699 15.9323587,8.83920813 L16.6177477,6.0127368 L14.9120526,5.57524127 L14.2125669,8.45821196 C13.8411931,8.37121288 13.4766245,8.28521378 13.1227498,8.19471469 L13.1246942,8.18571472 L10.7710392,7.58122085 L10.3170298,9.45620188 C10.3170298,9.45620188 11.5832981,9.75469886 11.5565631,9.77319869 C12.2477851,9.95069686 12.3727107,10.421192 12.3518087,10.7941883 L11.5555908,14.0796549 C11.6032278,14.0921548 11.6649615,14.1101547 11.7330143,14.1381543 C11.6761416,14.1236545 11.6153801,14.1076546 11.5526744,14.0921548 L10.4366083,18.6946081 C10.3520283,18.9106059 10.137662,19.2346026 9.65448709,19.1116039 C9.67150023,19.1371036 8.41398154,18.7931071 8.41398154,18.7931071 L7.5667241,20.8025867 L9.7876761,21.372081 C10.2008539,21.4785798 10.6057681,21.5900788 11.0043631,21.6950777 L10.2980721,24.6120481 L12.0027951,25.0495437 L12.7022807,22.1635729 C13.1679563,22.2935716 13.6200214,22.4135704 14.0623647,22.5265693 L13.3653095,25.3990401 L15.0719767,25.8365357 L15.7782677,22.9250652 C18.6884974,23.4915594 20.8768814,23.2630618 21.7980247,20.5555892 C22.5402864,18.3756114 21.7610818,17.1181242 20.2298936,16.2981324 C21.3449875,16.0336352 22.1849535,15.2791428 22.4090417,13.7206586 C22.4090417,13.7206586 22.1849535,15.2791428 22.4090417,13.7206586 Z M18.5096157,19.3451015 C17.9822065,21.5250794 14.4138088,20.3465913 13.2569111,20.0510944 L14.1940955,16.1866335 C15.3509932,16.4836306 19.0608436,17.0716245 18.5096157,19.3451015 C18.5096157,19.3451015 19.0608436,17.0716245 18.5096157,19.3451015 Z M19.0375111,13.6891589 C18.5562806,15.6721388 15.5862615,14.664649 14.6228282,14.4176515 L15.4725161,10.9126871 C16.4359494,11.1596846 19.5386714,11.6206799 19.0375111,13.6891589 C19.0375111,13.6891589 19.5386714,11.6206799 19.0375111,13.6891589 Z M44.5834015,9.6826996 C45.8448089,9.6826996 46.934626,9.91519716 47.8504224,10.3716926 C48.7705936,10.8326879 49.5298686,11.4536816 50.1389412,12.2346736 C50.7397503,13.0196657 51.1869545,13.9371564 51.4756928,14.9886457 C51.7624867,16.043135 51.9063699,17.1766236 51.9063699,18.3901112 C51.9063699,20.2540923 51.5743694,22.0150744 50.9040492,23.6750576 C50.233729,25.3375407 49.3242519,26.7795261 48.1673541,28.0095136 C47.0114285,29.2380011 45.6464836,30.2064913 44.0725194,30.921984 C42.5009855,31.6379768 40.7923739,31.9959732 38.9578646,31.9959732 C38.720652,31.9959732 38.3035854,31.9889732 37.7144426,31.9764734 C37.1252997,31.9639735 36.4481743,31.9014741 35.6898715,31.7959752 C34.9267079,31.6864763 34.119796,31.5244779 33.2676776,31.3074802 C32.4160453,31.0944823 31.607189,30.7959853 30.8454837,30.4169892 L37.6565977,0.979287908 L43.7570459,0.00679773627 L41.3183249,10.4531917 C41.8403872,10.2111942 42.3663382,10.0236961 42.891317,9.88719748 C43.416782,9.75269881 43.980648,9.6826996 44.5834015,9.6826996 C44.5834015,9.6826996 43.980648,9.6826996 44.5834015,9.6826996 Z M39.4663163,27.0180237 C40.3850293,27.0180237 41.2507582,26.785526 42.0639893,26.3290307 C42.8796508,25.8720353 43.5835113,25.2550415 44.1731403,24.4865493 C44.7627692,23.7145571 45.2294171,22.845066 45.5696812,21.8735758 C45.9099452,20.9020858 46.0820216,19.888596 46.0820216,18.8341068 C46.0820216,17.5386198 45.8715439,16.5281301 45.452047,15.7976375 C45.03255,15.070145 44.2562619,14.7041486 43.1290158,14.7041486 C42.7595862,14.7041486 42.2837027,14.7766478 41.6935875,14.9061465 C41.1015281,15.0436451 40.5716884,15.3291422 40.0967771,15.7586379 L37.5000763,26.8525253 C37.6565977,26.8810251 37.7951338,26.9080248 37.913254,26.9335246 C38.0289438,26.9610243 38.1567858,26.9805241 38.2841418,26.9940239 C38.4187891,27.0095237 38.5728801,27.0175237 38.7590532,27.0175237 C38.9452263,27.0175237 39.1780641,27.0180237 39.4663163,27.0180237 C39.4663163,27.0180237 39.1780641,27.0180237 39.4663163,27.0180237 Z M57.236201,31.4299789 L51.4094224,31.4299789 L56.3301265,10.131695 L62.1967648,10.131695 L57.236201,31.4299789 Z M60.0715727,7.53672139 C59.2583417,7.53672139 58.5209409,7.28772384 57.8666617,6.78872888 C57.2070356,6.29273395 56.880382,5.52924174 56.880382,4.50025211 C56.880382,3.93425786 56.9921831,3.40326332 57.2138408,2.90226841 C57.4389013,2.40227348 57.7329866,1.97177777 58.101444,1.60578151 C58.4694152,1.24278518 58.8957174,0.952788185 59.3798645,0.734290363 C59.8669282,0.519292552 60.3851018,0.411793596 60.9373017,0.411793596 C61.7500466,0.411793596 62.4835587,0.66079114 63.1402684,1.159786 C63.7945475,1.661281 64.1236315,2.4247732 64.1236315,3.44826287 C64.1236315,4.01625707 64.0123165,4.54925166 63.7887144,5.0492466 C63.5665706,5.54924153 63.2724852,5.97973714 62.9040279,6.34573339 C62.5389731,6.70922971 62.1087822,6.99822684 61.6256072,7.21472461 C61.1380575,7.43322243 60.6218283,7.53672139 60.0715727,7.53672139 Z M66.3040759,4.82624889 L72.4069545,3.85375872 L70.9083345,10.131695 L77.4443207,10.131695 L76.2640906,15.0706449 L69.7674777,15.0706449 L68.036992,22.5205693 C67.877554,23.141563 67.787141,23.7215572 67.7618642,24.2605516 C67.7331849,24.8020462 67.7997793,25.2670414 67.957273,25.6585375 C68.1137945,26.0510335 68.3952414,26.3535304 68.8035584,26.5675282 C69.2099308,26.7850261 69.7917824,26.894525 70.5549459,26.894525 C71.1834622,26.894525 71.7959375,26.8330255 72.387997,26.7110267 C72.9766537,26.591028 73.5730881,26.4240297 74.1768137,26.2055319 L74.6113795,30.823485 C73.8239113,31.1204821 72.9713068,31.3759794 72.0525939,31.5909773 C71.1324227,31.8089751 70.0430916,31.913974 68.7841146,31.913974 C66.97391,31.913974 65.5705638,31.6374768 64.5706736,31.0869824 C63.5722417,30.532488 62.8664368,29.7749957 62.4440232,28.8160054 C62.0274429,27.8605151 61.8412698,26.7590263 61.8932816,25.5180389 C61.9472378,24.2740516 62.1295221,22.9665647 62.4440232,21.5895788 L66.3040759,4.82624889 Z M77.1871783,22.9275651 C77.1871783,21.0930838 77.4759167,19.3631013 78.0529073,17.7436178 C78.6289257,16.1226342 79.4586838,14.7051486 80.5353765,13.4886609 C81.6081805,12.2781732 82.9152805,11.3191829 84.4537601,10.6151901 C85.9849483,9.91519716 87.699393,9.56220077 89.5888306,9.56220077 C90.7714915,9.56220077 91.8277681,9.67719964 92.7571752,9.90769725 C93.690471,10.1401949 94.5348113,10.4406918 95.2984617,10.817688 L93.2889591,15.5176403 C92.7639803,15.2986426 92.2190713,15.1056445 91.6556913,14.9306463 C91.0918253,14.7521482 90.4035199,14.666149 89.5893167,14.666149 C87.6444646,14.666149 86.1069573,15.355642 84.9626979,16.7301281 C83.8228133,18.1056142 83.2487392,19.9570953 83.2487392,22.2795718 C83.2487392,23.6560577 83.5374776,24.7690465 84.1168987,25.6205379 C84.6934032,26.4720292 85.7584296,26.8955249 87.3046867,26.8955249 C88.0678503,26.8955249 88.8042789,26.8135257 89.5095977,26.6535274 C90.2202634,26.491529 90.8478078,26.2875311 91.4004931,26.0465335 L91.8355454,30.8644846 C91.0986304,31.1584817 90.2858858,31.423979 89.394394,31.6564766 C88.5009578,31.8809743 87.4373896,31.9974732 86.2041755,31.9974732 C84.5762552,31.9974732 83.1981857,31.7524756 82.0709395,31.2699805 C80.9432073,30.7799855 80.0113699,30.1294921 79.2773717,29.3055005 C78.5394849,28.4795089 78.0096451,27.5150186 77.6820195,26.4080299 C77.3543938,25.3020411 77.1871783,24.1400529 77.1871783,22.9275651 C77.1871783,22.9275651 77.1871783,24.1400529 77.1871783,22.9275651 Z M102.07247,31.9964732 C100.681762,31.9964732 99.4738253,31.7784754 98.4491438,31.3469798 C97.4273798,30.9154841 96.5810951,30.3099903 95.911747,29.5249982 C95.2414268,28.7440061 94.7397798,27.8185156 94.3961133,26.7520264 C94.0524468,25.6860372 93.8871761,24.5055492 93.8871761,23.2120623 C93.8871761,21.5895788 94.140429,19.9675952 94.6522836,18.3501116 C95.1617079,16.7291281 95.91758,15.2726429 96.9179565,13.978156 C97.9105549,12.6816691 99.1350196,11.6216799 100.576766,10.7951883 C102.017056,9.97419666 103.673656,9.5612008 105.534414,9.5612008 C106.899845,9.5612008 108.101463,9.77969862 109.140241,10.2111942 C110.174158,10.6416898 111.025789,11.2521836 111.699026,12.0331757 C112.364971,12.8181677 112.870993,13.7396584 113.211257,14.8076476 C113.553951,15.8716368 113.723112,17.0551248 113.723112,18.3496116 C113.723112,19.9670952 113.47326,21.5890787 112.977447,23.2115623 C112.481147,24.8260459 111.744719,26.2860311 110.772536,27.583518 C109.802297,28.8780048 108.589013,29.9374941 107.13171,30.7604857 C105.676353,31.5834773 103.988643,31.9964732 102.07247,31.9964732 Z M104.984644,14.665649 C104.12086,14.665649 103.357211,14.9236464 102.703417,15.4331412 C102.047194,15.948636 101.495966,16.5966294 101.051678,17.3781215 C100.60253,18.1631135 100.269557,19.0191048 100.044497,19.9495954 C99.8213805,20.882086 99.7120098,21.763577 99.7120098,22.6010685 C99.7120098,23.9525548 99.923946,25.0050441 100.340526,25.7625365 C100.76294,26.5160287 101.521729,26.8950249 102.62467,26.8950249 C103.491371,26.8950249 104.251132,26.6390275 104.908814,26.1240327 C105.561148,25.6125379 106.112863,24.9640445 106.560553,24.1810524 C107.006785,23.4000604 107.342674,22.5415691 107.567735,21.6095786 C107.787934,20.680088 107.900221,19.793597 107.900221,18.9576055 C107.900221,17.6096191 107.689257,16.5546298 107.268788,15.7981376 C106.848805,15.0446452 106.086614,14.665649 104.984644,14.665649 Z M119.076275,31.4299789 L113.244635,31.4299789 L118.165339,10.131695 L124.034894,10.131695 L119.076275,31.4299789 Z M121.907272,7.53672139 C121.094527,7.53672139 120.357612,7.28772384 119.704305,6.78872888 C119.048081,6.29273395 118.718512,5.52924174 118.718512,4.50025211 C118.718512,3.93425786 118.831771,3.40326332 119.053915,2.90226841 C119.276059,2.40227348 119.572088,1.97177777 119.940545,1.60578151 C120.306572,1.24278518 120.736764,0.952788185 121.219939,0.734290363 C121.704085,0.519292552 122.222259,0.411793596 122.772515,0.411793596 C123.587204,0.411793596 124.323146,0.66079114 124.978398,1.159786 C125.634135,1.661281 125.965163,2.4247732 125.965163,3.44826287 C125.965163,4.01625707 125.847529,4.54925166 125.62733,5.0492466 C125.40713,5.54924153 125.1111,5.97973714 124.744102,6.34573339 C124.374672,6.70922971 123.949828,6.99822684 123.465682,7.21472461 C122.977645,7.43322243 122.460444,7.53672139 121.907272,7.53672139 Z M126.235593,11.1021852 C126.677936,10.9691866 127.171805,10.8091881 127.708935,10.6351899 C128.248012,10.4611916 128.850279,10.2991934 129.523029,10.1531948 C130.188488,10.0026963 130.9395,9.88069754 131.76537,9.78619856 C132.591239,9.68969952 133.532312,9.64270002 134.577895,9.64270002 C137.650965,9.64270002 139.769351,10.5631906 140.938888,12.3986721 C142.107452,14.2341534 142.309666,16.7461279 141.551363,19.9300956 L138.871054,31.4299789 L133.005875,31.4299789 L135.603548,20.1720931 C135.762013,19.4691002 135.886453,18.7896072 135.978324,18.1256139 C136.071168,17.4676205 136.06582,16.8876264 135.957423,16.3856316 C135.853885,15.8896366 135.609867,15.4836407 135.231201,15.1691439 C134.846703,14.859647 134.265823,14.7041486 133.477869,14.7041486 C132.718109,14.7041486 131.945223,14.7881477 131.156296,14.9501461 L127.337075,31.4294789 L121.469466,31.4294789 L126.235593,11.1021852 Z" id="Combined-Shape" fill="#FFFFFF" fill-rule="nonzero"></path>
    </g>
</svg>