<?xml version="1.0" encoding="UTF-8"?>
<svg width="143px" height="38px" viewBox="0 0 143 38" version="1.1" xmlns="http://www.w3.org/2000/svg"
>
    <!-- Generator: Sketch 51.3 (57544) - http://www.bohemiancoding.com/sketch -->
    <title>Artboard</title>
    <desc>Created with Sketch.</desc>
    <defs></defs>
    <g id="Artboard" stroke="none" stroke-width="1" fill="none" fill-rule="evenodd">
        <path d="M141.544286,0 L137.359473,0 C137.357114,0 137.354754,0.000756787655 137.353181,0.000756787655 L137.350821,0 C136.3929,0 135.420821,0.706064175 135.149489,1.6043472 C135.138479,1.64067202 135.119603,1.67548336 135.110952,1.71332176 C135.110952,1.71332176 135.011071,2.1514901 134.838047,2.90901445 L129.089728,27.9807225 C128.956816,28.5475414 128.867944,28.9168439 128.841204,29.0129534 L128.852215,29.0265752 C128.653237,29.902912 129.200621,30.6278953 130.099558,30.7088694 L130.111355,30.7255183 L134.455035,30.7255183 C135.406665,30.7255183 136.372452,30.0262651 136.652435,29.1393336 C136.665805,29.0961979 136.68704,29.0560891 136.697264,29.0129534 L142.967799,1.71180819 L142.958361,1.70878113 C143.171495,0.77492998 142.54625,0 141.544286,0 Z M120.079317,24.6408825 C119.498901,24.9927794 118.885454,25.2939729 118.242907,25.550517 C117.379361,25.8857651 116.560644,26.0613351 115.803273,26.0613351 C114.640869,26.0613351 113.747438,25.9031707 113.143428,25.5648956 C112.538632,25.2440262 112.221684,24.6862886 112.231908,23.8878989 C112.231908,22.966156 112.452906,22.2510107 112.910632,21.6902459 C113.371505,21.1506707 114.056521,20.7162861 114.90591,20.3923896 C115.750579,20.1169262 116.789508,19.889896 117.988876,19.727191 C119.055331,19.5977838 121.16386,19.3639426 121.43362,19.362429 C121.703379,19.3601587 121.882695,19.2171296 121.762365,19.9088152 C121.708885,20.2092518 121.100156,22.6142591 120.820959,23.7077881 C120.739952,24.0354685 120.286945,24.5129888 120.079317,24.6408825 C120.079317,24.6408825 120.286945,24.5129888 120.079317,24.6408825 Z M128.354566,7.7377231 C126.578715,6.78419596 123.800898,6.30213512 119.999883,6.30213512 C118.120217,6.30213512 116.231114,6.44743441 114.335718,6.73046551 C112.944451,6.93554955 112.801313,6.96960401 111.936982,7.15047144 C110.15877,7.52280112 109.884292,9.23612278 109.884292,9.23612278 L109.313313,11.4958306 C108.989287,12.9412566 109.844968,12.8814719 110.226407,12.7694703 C111.002653,12.5439536 111.423416,12.3199505 113.007369,11.9748644 C114.521326,11.644157 116.121008,11.396694 117.39745,11.4065321 C119.269252,11.4065321 120.692764,11.6040483 121.638889,11.9839457 C122.585801,12.3812486 123.054537,13.0577987 123.054537,14.0257044 C123.057683,14.2557618 123.063975,14.472954 122.977463,14.6629027 C122.899602,14.8399863 122.750172,15.0110158 122.30267,15.0692869 C119.631029,15.2221539 117.713612,15.4567518 115.404532,15.7806483 C113.126125,16.0894094 111.132421,16.61839 109.465889,17.350941 C107.689251,18.109222 106.360115,19.1240473 105.443875,20.4097953 C104.552017,21.7015974 104.103729,23.2658359 104.101369,25.1085649 C104.101369,26.8498869 104.751781,28.2703396 106.010135,29.3729499 C107.283432,30.4611816 108.939739,31 110.943668,31 C112.19573,30.9916755 113.175673,30.9046473 113.877992,30.7358881 C114.573233,30.567129 115.331391,30.3272337 116.132018,29.9934992 C116.730523,29.7528471 117.376215,29.4047341 118.058086,28.9680792 C118.740743,28.5299108 119.213412,28.2188793 119.819782,27.8367118 L119.841803,27.8730366 L119.671138,28.5972631 C119.670351,28.604074 119.660127,28.6078578 119.660127,28.6146687 L119.665633,28.6282906 C119.470588,29.5008435 120.015613,30.2265836 120.913762,30.3120983 L120.924773,30.3272337 L121.004207,30.3272337 L121.007352,30.3310175 C121.603498,30.3310175 123.649896,30.3302607 124.606244,30.3272337 L125.273959,30.3272337 C125.318001,30.3272337 125.322719,30.3143686 125.340022,30.3045307 C126.257048,30.1963129 127.136322,29.4773837 127.343164,28.6146687 L130.758808,14.4290615 C130.837455,14.095327 130.899586,13.7101324 130.936551,13.2666666 C130.97902,12.8186602 131.029354,12.4501145 131.014411,12.1837323 C131.022276,10.176028 130.125699,8.69200693 128.354566,7.7377231 Z M107.786566,4.50655066 C107.203791,3.41529191 106.32373,2.53668477 105.210874,1.85256695 C104.069704,1.1699626 102.713828,0.693955867 101.144031,0.416222183 C99.5915367,0.154380645 97.7456897,0.00454062747 95.6426658,0 L85.8573916,0.00454062747 C84.8499222,0.021189562 83.8613279,0.78249766 83.6285325,1.72013265 L77.0497015,29.267984 C76.8098279,30.2041054 77.4641718,30.9843327 78.4535525,30.9790354 L83.1487851,30.970711 C84.1444575,30.9790354 85.1590053,30.2041054 85.3941602,29.267984 L86.9812589,22.5826997 C87.2038303,21.6458215 88.2160186,20.8610536 89.2282072,20.8746755 L90.5628479,20.8746755 C96.2899313,20.8746755 100.730348,19.7425513 103.91005,17.4888976 C107.081888,15.2238923 108.678424,12.252823 108.678424,8.55752726 C108.6682,6.94409881 108.382712,5.58494441 107.786566,4.50655066 Z M97.6914224,13.5166248 C96.2899313,14.4973955 94.3229666,14.9892944 91.7921025,14.9892944 L90.6281252,14.9892944 C89.6214422,15.0006459 88.9710308,14.2173915 89.2101185,13.278243 L90.6131828,7.43145716 C90.822384,6.50668726 91.8440095,5.71964897 92.8365362,5.72721665 L94.3740875,5.71964897 C96.1688146,5.72721665 97.5113211,6.01630186 98.4385705,6.59068843 C99.3500904,7.17188589 99.792087,8.07319596 99.7991657,9.27418607 C99.8030981,11.1048067 99.0992062,12.5131511 97.6914224,13.5166248 Z M75.361034,6.42718791 C75.361034,6.42718791 79.3760355,6.44099688 80.3776771,6.42718791 C81.8467515,6.40716487 80.2539656,8.7705688 80.2539656,8.7705688 L63.6021126,36.4347541 C63.0686067,37.2957429 61.8813978,37.9965477 60.9851921,37.9965477 L56.6566944,38 C55.7604887,38 55.4638623,37.2957429 56.0058031,36.436135 L59.7073082,30.0964402 C59.7073082,30.0964402 60.0137755,29.7298123 59.7361274,27.6619201 C59.1794255,23.9231435 56.3242197,8.02626574 56.3242197,8.02626574 C56.1238914,7.17011006 56.6855136,6.46171027 57.5859367,6.46171027 L61.3211813,6.45618665 C62.4753537,6.45273448 63.3982698,7.19772799 63.6021126,8.06562127 C63.6021126,8.06562127 65.4149083,18.8455879 65.4584885,19.090697 C65.5126123,19.2923079 65.8366522,19.6368415 66.1564745,19.0948397 C66.7448073,18.0867854 72.7349757,7.99933827 72.7349757,7.99933827 C73.2909746,7.13903987 74.4655312,6.42718791 75.361034,6.42718791 Z M52.4150813,7.89033502 C54.1943698,8.86353547 55.0970564,10.3769741 55.089152,12.4260203 C55.1025895,12.6969112 55.0527916,13.071219 55.0069459,13.5304215 C54.9721664,13.9819062 54.9089308,14.3747366 54.8314674,14.7143148 L51.3985709,29.1826647 C51.188313,30.0593941 50.3077588,30.791031 49.3837304,30.904481 C49.3695023,30.9137422 49.3631788,30.9284058 49.3181235,30.9284058 L48.6462465,30.9284058 C47.6874384,30.9307211 45.6299138,30.9338082 45.0291767,30.9338082 L45.0268054,30.9284058 L44.9477611,30.9284058 L44.9366948,30.9114269 C44.0332178,30.8257606 43.4870213,30.0864061 43.6830513,29.1942413 L43.6759374,29.1826647 C43.6759374,29.1741754 43.6854226,29.1695447 43.6870035,29.1625988 L43.8585298,28.4247878 L43.8395592,28.3885147 C43.2277558,28.7782579 42.7503279,29.0954549 42.0658038,29.5415372 C41.3796988,29.9860761 40.7323254,30.3426333 40.1284265,30.5880558 C39.3269168,30.9284058 38.5641388,31.171513 37.8661771,31.3451609 C37.1579397,31.5157219 36.1738375,31.6060188 34.9146608,31.6145083 C32.9006106,31.6145083 31.2375174,31.0642372 29.9569988,29.9544336 C28.69387,28.8307382 28.0393827,27.3813563 28.0393827,25.6062881 C28.0409636,23.7262593 28.490726,22.1310131 29.3902507,20.8143755 C30.3095366,19.5039121 31.6438053,18.4674266 33.4294174,17.6941143 C35.1051578,16.9478138 37.1081417,16.4083474 39.3980567,16.0934657 C41.7227512,15.7631486 43.6490622,15.5246722 46.3310373,15.3664595 C46.7807996,15.3078051 46.9325648,15.1341571 47.0123996,14.9520196 C47.0969771,14.7598492 47.0922344,14.5375798 47.0859109,14.3029621 C47.0859109,13.3166415 46.6171779,12.6251367 45.6646934,12.2199581 C44.7137898,11.8325301 43.2846678,11.6318702 41.4018311,11.6318702 C40.1205222,11.6233808 38.5103886,11.8749774 36.9911561,12.2106968 C35.3992027,12.564167 34.9739441,12.7918387 34.1953572,13.0218259 C33.813573,13.1360476 32.9527799,13.1970174 33.2776522,11.7237107 L33.8515142,9.41766546 C33.8515142,9.41766546 34.1265886,7.67192446 35.9145719,7.29067067 C36.7840598,7.10621793 36.9247588,7.07071653 38.3254248,6.86311072 C40.2311842,6.57369745 42.1290393,6.42706139 44.0189898,6.42706139 C47.8392036,6.42706139 50.6302598,6.91790636 52.4150813,7.89033502 Z M30.9420681,4.59588333 C31.5412243,5.69565392 31.8281553,7.08175063 31.838431,8.72716182 C31.838431,12.4957089 30.2338306,15.5256732 27.0459718,17.8355773 C23.8502084,20.1339048 19.387364,21.288471 13.6313539,21.288471 L12.2899712,21.288471 C11.2726704,21.2745791 10.2553695,22.0749033 10.0316739,23.0303531 L8.43655879,29.8481588 C8.20021626,30.8028368 7.18054396,31.5931281 6.17984243,31.5846387 L1.46089435,31.5931281 C0.466516399,31.5985305 -0.191132677,30.8028368 0.0499525509,29.8481588 L6.66201299,1.75423058 C6.89598428,0.798008992 7.88957188,0.0216095995 8.90213014,0.00463063564 L18.7368289,0 C20.8504751,0.00463063564 22.7056461,0.157440909 24.2659817,0.424472892 C25.8437071,0.707712049 27.2064318,1.19315459 28.3533654,1.8892901 C29.4718431,2.58696909 30.3563494,3.48299272 30.9420681,4.59588333 Z M44.0980342,25.129335 C44.3035495,24.9996778 44.0980342,25.129335 44.0980342,25.129335 C44.3035495,24.9996778 44.758845,24.5126916 44.8434225,24.1769722 C45.1240299,23.0625381 45.7366237,20.6083133 45.7887929,20.3019211 C45.9097308,19.5965244 45.7287193,19.7439322 45.4599685,19.744704 C45.1896367,19.7485629 43.0680862,19.9862677 41.9962448,20.1182401 C40.7947706,20.2841704 39.7474328,20.5126139 38.8961251,20.7950813 C38.042446,21.1246266 37.3571314,21.5683936 36.8931411,22.1194366 C36.4338933,22.6905455 36.2094074,23.4221823 36.2094074,24.3598815 C36.1991316,25.1748693 36.5192613,25.7436629 37.1263219,26.0716646 C37.7341731,26.4151018 38.6344883,26.5771733 39.7996021,26.5771733 C40.5584279,26.5771733 41.3852318,26.3965793 42.2531389,26.0562294 C42.8989313,25.7938279 43.5146868,25.4882075 44.0980342,25.129335 Z M20.7959344,13.7845628 C22.2108285,12.7611974 22.9182754,11.3249356 22.9143233,9.45802685 C22.9072092,8.2332297 22.46298,7.31405309 21.5468558,6.72133464 C20.6149229,6.1355621 19.2656358,5.8407464 17.4618435,5.83302871 L15.9165264,5.8407464 C14.9189865,5.83302871 13.8922004,6.63566834 13.6819423,7.57876981 L12.271791,13.5414556 C12.0314962,14.4992207 12.685193,15.2980015 13.6969608,15.2864249 L14.8668172,15.2864249 C17.4104646,15.2864249 19.387364,14.7847752 20.7959344,13.7845628 Z"
              id="Combined-Shape" fill="#FFFFFF" fill-rule="nonzero"></path>
    </g>
</svg>
